<?xml version="1.0" encoding="iso-8859-1"?>
<!-- Generator: Adobe Illustrator 19.0.0, SVG Export Plug-In . SVG Version: 6.00 Build 0)  -->
<svg version="1.1" id="Layer_1" xmlns="http://www.w3.org/2000/svg" xmlns:xlink="http://www.w3.org/1999/xlink" x="0px" y="0px"
	 viewBox="0 0 512 512" style="enable-background:new 0 0 512 512;" xml:space="preserve">
<g>
	<path style="fill:#FFC61B;" d="M255.999,422.308c-91.702,0-166.308-74.606-166.308-166.308S164.297,89.692,255.999,89.692
		c44.423,0,86.186,17.299,117.598,48.711c6.213,6.213,6.213,16.287,0,22.5c-6.211,6.213-16.286,6.215-22.5,0
		c-25.401-25.401-59.173-39.391-95.097-39.391c-74.156,0-134.488,60.33-134.488,134.488s60.33,134.488,134.488,134.488
		s134.488-60.33,134.488-134.488c0-8.787,7.123-15.91,15.91-15.91c8.787,0,15.91,7.123,15.91,15.91
		C422.308,347.703,347.703,422.308,255.999,422.308z"/>
	<path style="fill:#FFC61B;" d="M255.999,113.182c-8.787,0-15.91-7.123-15.91-15.91V15.91c0-8.787,7.123-15.91,15.91-15.91
		s15.91,7.123,15.91,15.91v81.362C271.909,106.059,264.786,113.182,255.999,113.182z"/>
	<path style="fill:#FFC61B;" d="M255.999,512c-8.787,0-15.91-7.123-15.91-15.91v-81.362c0-8.787,7.123-15.91,15.91-15.91
		s15.91,7.123,15.91,15.91v81.362C271.909,504.877,264.786,512,255.999,512z"/>
	<path style="fill:#FFC61B;" d="M496.09,271.909h-89.692c-8.787,0-15.91-7.123-15.91-15.91s7.123-15.91,15.91-15.91h89.692
		c8.787,0,15.91,7.123,15.91,15.91S504.877,271.909,496.09,271.909z"/>
	<path style="fill:#FFC61B;" d="M97.272,271.909H15.91c-8.787,0-15.91-7.123-15.91-15.91s7.123-15.91,15.91-15.91h81.362
		c8.787,0,15.91,7.123,15.91,15.91S106.059,271.909,97.272,271.909z"/>
	<path style="fill:#FFC61B;" d="M362.347,165.564c-4.071,0-8.144-1.553-11.25-4.66c-6.213-6.213-6.213-16.287,0-22.502
		l63.421-63.421c6.213-6.213,16.287-6.213,22.502,0c6.213,6.213,6.213,16.287,0,22.502l-63.421,63.421
		C370.491,164.009,366.418,165.564,362.347,165.564z"/>
	<path style="fill:#FFC61B;" d="M86.23,441.678c-4.071,0-8.144-1.553-11.25-4.66c-6.213-6.213-6.213-16.287,0-22.502l57.531-57.531
		c6.213-6.213,16.287-6.213,22.502,0c6.213,6.213,6.213,16.287,0,22.502l-57.531,57.531
		C94.375,440.125,90.302,441.678,86.23,441.678z"/>
	<path style="fill:#FFC61B;" d="M425.768,441.678c-4.071,0-8.144-1.553-11.25-4.66l-57.531-57.531
		c-6.213-6.213-6.213-16.287,0-22.502c6.213-6.213,16.287-6.213,22.502,0l57.531,57.531c6.213,6.213,6.213,16.287,0,22.502
		C433.913,440.125,429.841,441.678,425.768,441.678z"/>
	<path style="fill:#FFC61B;" d="M143.762,159.672c-4.071,0-8.144-1.553-11.25-4.66L74.98,97.481c-6.213-6.213-6.213-16.287,0-22.502
		c6.213-6.213,16.287-6.213,22.502,0l57.531,57.531c6.213,6.213,6.213,16.287,0,22.502
		C151.906,158.119,147.833,159.672,143.762,159.672z"/>
</g>
<circle style="fill:#FEE187;" cx="255.996" cy="255.996" r="90.688"/>
<path style="fill:#FFC61B;" d="M255.999,362.598c-58.779,0-106.599-47.82-106.599-106.599S197.22,149.4,255.999,149.4
	s106.599,47.82,106.599,106.599S314.778,362.598,255.999,362.598z M255.999,181.221c-41.233,0-74.778,33.545-74.778,74.778
	s33.545,74.778,74.778,74.778s74.778-33.545,74.778-74.778S297.232,181.221,255.999,181.221z"/>
<g>
</g>
<g>
</g>
<g>
</g>
<g>
</g>
<g>
</g>
<g>
</g>
<g>
</g>
<g>
</g>
<g>
</g>
<g>
</g>
<g>
</g>
<g>
</g>
<g>
</g>
<g>
</g>
<g>
</g>
</svg>
